<?xml version="1.0" encoding="utf-8"?>
<svg version="1.1" xmlns:xlink="http://www.w3.org/1999/xlink" width="15px" height="15px" viewBox="561 1708  15 15" xmlns="http://www.w3.org/2000/svg">
  <path d="M 561.5 1710  A 1.5 1.5 0 0 1 563 1708.5 L 574 1708.5  A 1.5 1.5 0 0 1 575.5 1710 L 575.5 1721  A 1.5 1.5 0 0 1 574 1722.5 L 563 1722.5  A 1.5 1.5 0 0 1 561.5 1721 L 561.5 1710  Z " fill-rule="nonzero" fill="#1890ff" stroke="none" />
  <path d="M 561.5 1710  A 1.5 1.5 0 0 1 563 1708.5 L 574 1708.5  A 1.5 1.5 0 0 1 575.5 1710 L 575.5 1721  A 1.5 1.5 0 0 1 574 1722.5 L 563 1722.5  A 1.5 1.5 0 0 1 561.5 1721 L 561.5 1710  Z " stroke-width="1" stroke="#ffffff" fill="none" />
  <path d="M 564.214285714286 1715.5  L 567.428571428571 1718.71428571429  " stroke-width="3.21428571428571" stroke="#ffffff" fill="none" />
  <path d="M 567.428571428571 1718.71428571429  L 572.785714285714 1711.21428571429  " stroke-width="3.21428571428571" stroke="#ffffff" fill="none" />
</svg>