<?xml version="1.0" encoding="utf-8"?>
<svg version="1.1" xmlns:xlink="http://www.w3.org/1999/xlink" width="15px" height="15px" viewBox="562 1759  15 15" xmlns="http://www.w3.org/2000/svg">
  <path d="M 562.5 1761  A 1.5 1.5 0 0 1 564 1759.5 L 575 1759.5  A 1.5 1.5 0 0 1 576.5 1761 L 576.5 1772  A 1.5 1.5 0 0 1 575 1773.5 L 564 1773.5  A 1.5 1.5 0 0 1 562.5 1772 L 562.5 1761  Z " fill-rule="nonzero" fill="#f0f0f0" stroke="none" />
  <path d="M 562.5 1761  A 1.5 1.5 0 0 1 564 1759.5 L 575 1759.5  A 1.5 1.5 0 0 1 576.5 1761 L 576.5 1772  A 1.5 1.5 0 0 1 575 1773.5 L 564 1773.5  A 1.5 1.5 0 0 1 562.5 1772 L 562.5 1761  Z " stroke-width="1" stroke="#d7d7d7" fill="none" />
</svg>