<?xml version="1.0" encoding="utf-8"?>
<svg version="1.1" xmlns:xlink="http://www.w3.org/1999/xlink" width="15px" height="15px" viewBox="561 1653  15 15" xmlns="http://www.w3.org/2000/svg">
  <path d="M 561.5 1655  A 1.5 1.5 0 0 1 563 1653.5 L 574 1653.5  A 1.5 1.5 0 0 1 575.5 1655 L 575.5 1666  A 1.5 1.5 0 0 1 574 1667.5 L 563 1667.5  A 1.5 1.5 0 0 1 561.5 1666 L 561.5 1655  Z " fill-rule="nonzero" fill="#ffffff" stroke="none" />
  <path d="M 561.5 1655  A 1.5 1.5 0 0 1 563 1653.5 L 574 1653.5  A 1.5 1.5 0 0 1 575.5 1655 L 575.5 1666  A 1.5 1.5 0 0 1 574 1667.5 L 563 1667.5  A 1.5 1.5 0 0 1 561.5 1666 L 561.5 1655  Z " stroke-width="1" stroke="#d7d7d7" fill="none" />
</svg>