<?xml version="1.0" encoding="utf-8"?>
<svg version="1.1" xmlns:xlink="http://www.w3.org/1999/xlink" width="15px" height="15px" viewBox="562 1759  15 15" xmlns="http://www.w3.org/2000/svg">
  <path d="M 562.5 1761  A 1.5 1.5 0 0 1 564 1759.5 L 575 1759.5  A 1.5 1.5 0 0 1 576.5 1761 L 576.5 1772  A 1.5 1.5 0 0 1 575 1773.5 L 564 1773.5  A 1.5 1.5 0 0 1 562.5 1772 L 562.5 1761  Z " fill-rule="nonzero" fill="#1890ff" stroke="none" />
  <path d="M 562.5 1761  A 1.5 1.5 0 0 1 564 1759.5 L 575 1759.5  A 1.5 1.5 0 0 1 576.5 1761 L 576.5 1772  A 1.5 1.5 0 0 1 575 1773.5 L 564 1773.5  A 1.5 1.5 0 0 1 562.5 1772 L 562.5 1761  Z " stroke-width="1" stroke="#ffffff" fill="none" />
  <path d="M 565.214285714286 1766.5  L 568.428571428571 1769.71428571429  " stroke-width="3.21428571428571" stroke="#ffffff" fill="none" />
  <path d="M 568.428571428571 1769.71428571429  L 573.785714285714 1762.21428571429  " stroke-width="3.21428571428571" stroke="#ffffff" fill="none" />
</svg>