<?xml version="1.0" encoding="utf-8"?>
<svg version="1.1" xmlns:xlink="http://www.w3.org/1999/xlink" width="15px" height="15px" viewBox="561 1812  15 15" xmlns="http://www.w3.org/2000/svg">
  <path d="M 561.5 1814  A 1.5 1.5 0 0 1 563 1812.5 L 574 1812.5  A 1.5 1.5 0 0 1 575.5 1814 L 575.5 1825  A 1.5 1.5 0 0 1 574 1826.5 L 563 1826.5  A 1.5 1.5 0 0 1 561.5 1825 L 561.5 1814  Z " fill-rule="nonzero" fill="#ffffff" stroke="none" />
  <path d="M 561.5 1814  A 1.5 1.5 0 0 1 563 1812.5 L 574 1812.5  A 1.5 1.5 0 0 1 575.5 1814 L 575.5 1825  A 1.5 1.5 0 0 1 574 1826.5 L 563 1826.5  A 1.5 1.5 0 0 1 561.5 1825 L 561.5 1814  Z " stroke-width="1" stroke="#d7d7d7" fill="none" />
</svg>