<?xml version="1.0" encoding="utf-8"?>
<svg version="1.1" xmlns:xlink="http://www.w3.org/1999/xlink" width="60px" height="23px" xmlns="http://www.w3.org/2000/svg">
  <defs>
    <mask fill="white" id="clip4">
      <path d="M 0 18  L 0 5  C 0 2.20000000000005  2.20000000000005 0  5 0  L 33.7307692307692 0  L 55 0  C 57.8 0  60 2.20000000000005  60 5  L 60 18  C 60 20.8  57.8 23  55 23  L 33.7307692307692 23  L 5 23  C 2.20000000000005 23  0 20.8  0 18  Z " fill-rule="evenodd" />
    </mask>
  </defs>
  <g transform="matrix(1 0 0 1 -589 -993 )">
    <path d="M 0 18  L 0 5  C 0 2.20000000000005  2.20000000000005 0  5 0  L 33.7307692307692 0  L 55 0  C 57.8 0  60 2.20000000000005  60 5  L 60 18  C 60 20.8  57.8 23  55 23  L 33.7307692307692 23  L 5 23  C 2.20000000000005 23  0 20.8  0 18  Z " fill-rule="nonzero" fill="#ffffff" stroke="none" transform="matrix(1 0 0 1 589 993 )" />
    <path d="M 0 18  L 0 5  C 0 2.20000000000005  2.20000000000005 0  5 0  L 33.7307692307692 0  L 55 0  C 57.8 0  60 2.20000000000005  60 5  L 60 18  C 60 20.8  57.8 23  55 23  L 33.7307692307692 23  L 5 23  C 2.20000000000005 23  0 20.8  0 18  Z " stroke-width="2" stroke="#797979" fill="none" transform="matrix(1 0 0 1 589 993 )" mask="url(#clip4)" />
  </g>
</svg>