<?xml version="1.0" encoding="utf-8"?>
<svg version="1.1" xmlns:xlink="http://www.w3.org/1999/xlink" width="15px" height="15px" viewBox="508 525  15 15" xmlns="http://www.w3.org/2000/svg">
  <path d="M 508.5 527  A 1.5 1.5 0 0 1 510 525.5 L 521 525.5  A 1.5 1.5 0 0 1 522.5 527 L 522.5 538  A 1.5 1.5 0 0 1 521 539.5 L 510 539.5  A 1.5 1.5 0 0 1 508.5 538 L 508.5 527  Z " fill-rule="nonzero" fill="#1890ff" stroke="none" />
  <path d="M 508.5 527  A 1.5 1.5 0 0 1 510 525.5 L 521 525.5  A 1.5 1.5 0 0 1 522.5 527 L 522.5 538  A 1.5 1.5 0 0 1 521 539.5 L 510 539.5  A 1.5 1.5 0 0 1 508.5 538 L 508.5 527  Z " stroke-width="1" stroke="#ffffff" fill="none" />
  <path d="M 511.214285714286 532.5  L 514.428571428571 535.714285714286  " stroke-width="3.21428571428571" stroke="#ffffff" fill="none" />
  <path d="M 514.428571428571 535.714285714286  L 519.785714285714 528.214285714286  " stroke-width="3.21428571428571" stroke="#ffffff" fill="none" />
</svg>