<?xml version="1.0" encoding="utf-8"?>
<svg version="1.1" xmlns:xlink="http://www.w3.org/1999/xlink" width="15px" height="15px" viewBox="509 577  15 15" xmlns="http://www.w3.org/2000/svg">
  <path d="M 509.5 579  A 1.5 1.5 0 0 1 511 577.5 L 522 577.5  A 1.5 1.5 0 0 1 523.5 579 L 523.5 590  A 1.5 1.5 0 0 1 522 591.5 L 511 591.5  A 1.5 1.5 0 0 1 509.5 590 L 509.5 579  Z " fill-rule="nonzero" fill="#f0f0f0" stroke="none" />
  <path d="M 509.5 579  A 1.5 1.5 0 0 1 511 577.5 L 522 577.5  A 1.5 1.5 0 0 1 523.5 579 L 523.5 590  A 1.5 1.5 0 0 1 522 591.5 L 511 591.5  A 1.5 1.5 0 0 1 509.5 590 L 509.5 579  Z " stroke-width="1" stroke="#d7d7d7" fill="none" />
  <path d="M 512.214285714286 584.5  L 515.428571428571 587.714285714286  " stroke-width="3.21428571428571" stroke="#d7d7d7" fill="none" />
  <path d="M 515.428571428571 587.714285714286  L 520.785714285714 580.214285714286  " stroke-width="3.21428571428571" stroke="#d7d7d7" fill="none" />
</svg>