<?xml version="1.0" encoding="utf-8"?>
<svg version="1.1" xmlns:xlink="http://www.w3.org/1999/xlink" width="15px" height="15px" viewBox="508 629  15 15" xmlns="http://www.w3.org/2000/svg">
  <path d="M 508.5 631  A 1.5 1.5 0 0 1 510 629.5 L 521 629.5  A 1.5 1.5 0 0 1 522.5 631 L 522.5 642  A 1.5 1.5 0 0 1 521 643.5 L 510 643.5  A 1.5 1.5 0 0 1 508.5 642 L 508.5 631  Z " fill-rule="nonzero" fill="#1890ff" stroke="none" />
  <path d="M 508.5 631  A 1.5 1.5 0 0 1 510 629.5 L 521 629.5  A 1.5 1.5 0 0 1 522.5 631 L 522.5 642  A 1.5 1.5 0 0 1 521 643.5 L 510 643.5  A 1.5 1.5 0 0 1 508.5 642 L 508.5 631  Z " stroke-width="1" stroke="#ffffff" fill="none" />
  <path d="M 511.214285714286 636.5  L 514.428571428571 639.714285714286  " stroke-width="3.21428571428571" stroke="#ffffff" fill="none" />
  <path d="M 514.428571428571 639.714285714286  L 519.785714285714 632.214285714286  " stroke-width="3.21428571428571" stroke="#ffffff" fill="none" />
</svg>