<?xml version="1.0" encoding="utf-8"?>
<svg version="1.1" xmlns:xlink="http://www.w3.org/1999/xlink" width="15px" height="15px" viewBox="508 682  15 15" xmlns="http://www.w3.org/2000/svg">
  <path d="M 508.5 684  A 1.5 1.5 0 0 1 510 682.5 L 521 682.5  A 1.5 1.5 0 0 1 522.5 684 L 522.5 695  A 1.5 1.5 0 0 1 521 696.5 L 510 696.5  A 1.5 1.5 0 0 1 508.5 695 L 508.5 684  Z " fill-rule="nonzero" fill="#f0f0f0" stroke="none" />
  <path d="M 508.5 684  A 1.5 1.5 0 0 1 510 682.5 L 521 682.5  A 1.5 1.5 0 0 1 522.5 684 L 522.5 695  A 1.5 1.5 0 0 1 521 696.5 L 510 696.5  A 1.5 1.5 0 0 1 508.5 695 L 508.5 684  Z " stroke-width="1" stroke="#d7d7d7" fill="none" />
  <path d="M 511.214285714286 689.5  L 514.428571428571 692.714285714286  " stroke-width="3.21428571428571" stroke="#d7d7d7" fill="none" />
  <path d="M 514.428571428571 692.714285714286  L 519.785714285714 685.214285714286  " stroke-width="3.21428571428571" stroke="#d7d7d7" fill="none" />
</svg>