<?xml version="1.0" encoding="utf-8"?>
<svg version="1.1" xmlns:xlink="http://www.w3.org/1999/xlink" width="15px" height="15px" viewBox="388 1965  15 15" xmlns="http://www.w3.org/2000/svg">
  <path d="M 388.5 1967  A 1.5 1.5 0 0 1 390 1965.5 L 401 1965.5  A 1.5 1.5 0 0 1 402.5 1967 L 402.5 1978  A 1.5 1.5 0 0 1 401 1979.5 L 390 1979.5  A 1.5 1.5 0 0 1 388.5 1978 L 388.5 1967  Z " fill-rule="nonzero" fill="#1890ff" stroke="none" />
  <path d="M 388.5 1967  A 1.5 1.5 0 0 1 390 1965.5 L 401 1965.5  A 1.5 1.5 0 0 1 402.5 1967 L 402.5 1978  A 1.5 1.5 0 0 1 401 1979.5 L 390 1979.5  A 1.5 1.5 0 0 1 388.5 1978 L 388.5 1967  Z " stroke-width="1" stroke="#ffffff" fill="none" />
  <path d="M 391.214285714286 1972.5  L 394.428571428571 1975.71428571429  " stroke-width="3.21428571428571" stroke="#ffffff" fill="none" />
  <path d="M 394.428571428571 1975.71428571429  L 399.785714285714 1968.21428571429  " stroke-width="3.21428571428571" stroke="#ffffff" fill="none" />
</svg>