<?xml version="1.0" encoding="utf-8"?>
<svg version="1.1" xmlns:xlink="http://www.w3.org/1999/xlink" width="15px" height="15px" viewBox="388 1861  15 15" xmlns="http://www.w3.org/2000/svg">
  <path d="M 388.5 1863  A 1.5 1.5 0 0 1 390 1861.5 L 401 1861.5  A 1.5 1.5 0 0 1 402.5 1863 L 402.5 1874  A 1.5 1.5 0 0 1 401 1875.5 L 390 1875.5  A 1.5 1.5 0 0 1 388.5 1874 L 388.5 1863  Z " fill-rule="nonzero" fill="#ffffff" stroke="none" />
  <path d="M 388.5 1863  A 1.5 1.5 0 0 1 390 1861.5 L 401 1861.5  A 1.5 1.5 0 0 1 402.5 1863 L 402.5 1874  A 1.5 1.5 0 0 1 401 1875.5 L 390 1875.5  A 1.5 1.5 0 0 1 388.5 1874 L 388.5 1863  Z " stroke-width="1" stroke="#d7d7d7" fill="none" />
</svg>