<?xml version="1.0" encoding="utf-8"?>
<svg version="1.1" xmlns:xlink="http://www.w3.org/1999/xlink" width="15px" height="15px" viewBox="389 1912  15 15" xmlns="http://www.w3.org/2000/svg">
  <path d="M 389.5 1914  A 1.5 1.5 0 0 1 391 1912.5 L 402 1912.5  A 1.5 1.5 0 0 1 403.5 1914 L 403.5 1925  A 1.5 1.5 0 0 1 402 1926.5 L 391 1926.5  A 1.5 1.5 0 0 1 389.5 1925 L 389.5 1914  Z " fill-rule="nonzero" fill="#1890ff" stroke="none" />
  <path d="M 389.5 1914  A 1.5 1.5 0 0 1 391 1912.5 L 402 1912.5  A 1.5 1.5 0 0 1 403.5 1914 L 403.5 1925  A 1.5 1.5 0 0 1 402 1926.5 L 391 1926.5  A 1.5 1.5 0 0 1 389.5 1925 L 389.5 1914  Z " stroke-width="1" stroke="#ffffff" fill="none" />
  <path d="M 392.214285714286 1919.5  L 395.428571428571 1922.71428571429  " stroke-width="3.21428571428571" stroke="#ffffff" fill="none" />
  <path d="M 395.428571428571 1922.71428571429  L 400.785714285714 1915.21428571429  " stroke-width="3.21428571428571" stroke="#ffffff" fill="none" />
</svg>