<?xml version="1.0" encoding="utf-8"?>
<svg version="1.1" xmlns:xlink="http://www.w3.org/1999/xlink" width="15px" height="15px" viewBox="1575 1545  15 15" xmlns="http://www.w3.org/2000/svg">
  <path d="M 1575.5 1547  A 1.5 1.5 0 0 1 1577 1545.5 L 1588 1545.5  A 1.5 1.5 0 0 1 1589.5 1547 L 1589.5 1558  A 1.5 1.5 0 0 1 1588 1559.5 L 1577 1559.5  A 1.5 1.5 0 0 1 1575.5 1558 L 1575.5 1547  Z " fill-rule="nonzero" fill="#f0f0f0" stroke="none" />
  <path d="M 1575.5 1547  A 1.5 1.5 0 0 1 1577 1545.5 L 1588 1545.5  A 1.5 1.5 0 0 1 1589.5 1547 L 1589.5 1558  A 1.5 1.5 0 0 1 1588 1559.5 L 1577 1559.5  A 1.5 1.5 0 0 1 1575.5 1558 L 1575.5 1547  Z " stroke-width="1" stroke="#d7d7d7" fill="none" />
  <path d="M 1578.21428571429 1552.5  L 1581.42857142857 1555.71428571429  " stroke-width="3.21428571428571" stroke="#d7d7d7" fill="none" />
  <path d="M 1581.42857142857 1555.71428571429  L 1586.78571428571 1548.21428571429  " stroke-width="3.21428571428571" stroke="#d7d7d7" fill="none" />
</svg>