<?xml version="1.0" encoding="utf-8"?>
<svg version="1.1" xmlns:xlink="http://www.w3.org/1999/xlink" width="15px" height="15px" viewBox="1575 1649  15 15" xmlns="http://www.w3.org/2000/svg">
  <path d="M 1575.5 1651  A 1.5 1.5 0 0 1 1577 1649.5 L 1588 1649.5  A 1.5 1.5 0 0 1 1589.5 1651 L 1589.5 1662  A 1.5 1.5 0 0 1 1588 1663.5 L 1577 1663.5  A 1.5 1.5 0 0 1 1575.5 1662 L 1575.5 1651  Z " fill-rule="nonzero" fill="#1890ff" stroke="none" />
  <path d="M 1575.5 1651  A 1.5 1.5 0 0 1 1577 1649.5 L 1588 1649.5  A 1.5 1.5 0 0 1 1589.5 1651 L 1589.5 1662  A 1.5 1.5 0 0 1 1588 1663.5 L 1577 1663.5  A 1.5 1.5 0 0 1 1575.5 1662 L 1575.5 1651  Z " stroke-width="1" stroke="#ffffff" fill="none" />
  <path d="M 1578.21428571429 1656.5  L 1581.42857142857 1659.71428571429  " stroke-width="3.21428571428571" stroke="#ffffff" fill="none" />
  <path d="M 1581.42857142857 1659.71428571429  L 1586.78571428571 1652.21428571429  " stroke-width="3.21428571428571" stroke="#ffffff" fill="none" />
</svg>