<?xml version="1.0" encoding="utf-8"?>
<svg version="1.1" xmlns:xlink="http://www.w3.org/1999/xlink" width="15px" height="15px" viewBox="1575 1702  15 15" xmlns="http://www.w3.org/2000/svg">
  <path d="M 1575.5 1704  A 1.5 1.5 0 0 1 1577 1702.5 L 1588 1702.5  A 1.5 1.5 0 0 1 1589.5 1704 L 1589.5 1715  A 1.5 1.5 0 0 1 1588 1716.5 L 1577 1716.5  A 1.5 1.5 0 0 1 1575.5 1715 L 1575.5 1704  Z " fill-rule="nonzero" fill="#f0f0f0" stroke="none" />
  <path d="M 1575.5 1704  A 1.5 1.5 0 0 1 1577 1702.5 L 1588 1702.5  A 1.5 1.5 0 0 1 1589.5 1704 L 1589.5 1715  A 1.5 1.5 0 0 1 1588 1716.5 L 1577 1716.5  A 1.5 1.5 0 0 1 1575.5 1715 L 1575.5 1704  Z " stroke-width="1" stroke="#d7d7d7" fill="none" />
  <path d="M 1578.21428571429 1709.5  L 1581.42857142857 1712.71428571429  " stroke-width="3.21428571428571" stroke="#d7d7d7" fill="none" />
  <path d="M 1581.42857142857 1712.71428571429  L 1586.78571428571 1705.21428571429  " stroke-width="3.21428571428571" stroke="#d7d7d7" fill="none" />
</svg>