<?xml version="1.0" encoding="utf-8"?>
<svg version="1.1" xmlns:xlink="http://www.w3.org/1999/xlink" width="15px" height="15px" viewBox="1576 1597  15 15" xmlns="http://www.w3.org/2000/svg">
  <path d="M 1576.5 1599  A 1.5 1.5 0 0 1 1578 1597.5 L 1589 1597.5  A 1.5 1.5 0 0 1 1590.5 1599 L 1590.5 1610  A 1.5 1.5 0 0 1 1589 1611.5 L 1578 1611.5  A 1.5 1.5 0 0 1 1576.5 1610 L 1576.5 1599  Z " fill-rule="nonzero" fill="#1890ff" stroke="none" />
  <path d="M 1576.5 1599  A 1.5 1.5 0 0 1 1578 1597.5 L 1589 1597.5  A 1.5 1.5 0 0 1 1590.5 1599 L 1590.5 1610  A 1.5 1.5 0 0 1 1589 1611.5 L 1578 1611.5  A 1.5 1.5 0 0 1 1576.5 1610 L 1576.5 1599  Z " stroke-width="1" stroke="#ffffff" fill="none" />
  <path d="M 1579.21428571429 1604.5  L 1582.42857142857 1607.71428571429  " stroke-width="3.21428571428571" stroke="#ffffff" fill="none" />
  <path d="M 1582.42857142857 1607.71428571429  L 1587.78571428571 1600.21428571429  " stroke-width="3.21428571428571" stroke="#ffffff" fill="none" />
</svg>