<?xml version="1.0" encoding="utf-8"?>
<svg version="1.1" xmlns:xlink="http://www.w3.org/1999/xlink" width="15px" height="15px" viewBox="458 575  15 15" xmlns="http://www.w3.org/2000/svg">
  <path d="M 458.5 577  A 1.5 1.5 0 0 1 460 575.5 L 471 575.5  A 1.5 1.5 0 0 1 472.5 577 L 472.5 588  A 1.5 1.5 0 0 1 471 589.5 L 460 589.5  A 1.5 1.5 0 0 1 458.5 588 L 458.5 577  Z " fill-rule="nonzero" fill="#ffffff" stroke="none" />
  <path d="M 458.5 577  A 1.5 1.5 0 0 1 460 575.5 L 471 575.5  A 1.5 1.5 0 0 1 472.5 577 L 472.5 588  A 1.5 1.5 0 0 1 471 589.5 L 460 589.5  A 1.5 1.5 0 0 1 458.5 588 L 458.5 577  Z " stroke-width="1" stroke="#d7d7d7" fill="none" />
</svg>