<?xml version="1.0" encoding="utf-8"?>
<svg version="1.1" xmlns:xlink="http://www.w3.org/1999/xlink" width="15px" height="15px" viewBox="459 626  15 15" xmlns="http://www.w3.org/2000/svg">
  <path d="M 459.5 628  A 1.5 1.5 0 0 1 461 626.5 L 472 626.5  A 1.5 1.5 0 0 1 473.5 628 L 473.5 639  A 1.5 1.5 0 0 1 472 640.5 L 461 640.5  A 1.5 1.5 0 0 1 459.5 639 L 459.5 628  Z " fill-rule="nonzero" fill="#f0f0f0" stroke="none" />
  <path d="M 459.5 628  A 1.5 1.5 0 0 1 461 626.5 L 472 626.5  A 1.5 1.5 0 0 1 473.5 628 L 473.5 639  A 1.5 1.5 0 0 1 472 640.5 L 461 640.5  A 1.5 1.5 0 0 1 459.5 639 L 459.5 628  Z " stroke-width="1" stroke="#d7d7d7" fill="none" />
  <path d="M 462.214285714286 633.5  L 465.428571428571 636.714285714286  " stroke-width="3.21428571428571" stroke="#d7d7d7" fill="none" />
  <path d="M 465.428571428571 636.714285714286  L 470.785714285714 629.214285714286  " stroke-width="3.21428571428571" stroke="#d7d7d7" fill="none" />
</svg>