<?xml version="1.0" encoding="utf-8"?>
<svg version="1.1" xmlns:xlink="http://www.w3.org/1999/xlink" width="15px" height="15px" viewBox="458 679  15 15" xmlns="http://www.w3.org/2000/svg">
  <path d="M 458.5 681  A 1.5 1.5 0 0 1 460 679.5 L 471 679.5  A 1.5 1.5 0 0 1 472.5 681 L 472.5 692  A 1.5 1.5 0 0 1 471 693.5 L 460 693.5  A 1.5 1.5 0 0 1 458.5 692 L 458.5 681  Z " fill-rule="nonzero" fill="#f0f0f0" stroke="none" />
  <path d="M 458.5 681  A 1.5 1.5 0 0 1 460 679.5 L 471 679.5  A 1.5 1.5 0 0 1 472.5 681 L 472.5 692  A 1.5 1.5 0 0 1 471 693.5 L 460 693.5  A 1.5 1.5 0 0 1 458.5 692 L 458.5 681  Z " stroke-width="1" stroke="#d7d7d7" fill="none" />
  <path d="M 461.214285714286 686.5  L 464.428571428571 689.714285714286  " stroke-width="3.21428571428571" stroke="#d7d7d7" fill="none" />
  <path d="M 464.428571428571 689.714285714286  L 469.785714285714 682.214285714286  " stroke-width="3.21428571428571" stroke="#d7d7d7" fill="none" />
</svg>