<?xml version="1.0" encoding="utf-8"?>
<svg version="1.1" xmlns:xlink="http://www.w3.org/1999/xlink" width="15px" height="15px" viewBox="505 563  15 15" xmlns="http://www.w3.org/2000/svg">
  <path d="M 505.5 565  A 1.5 1.5 0 0 1 507 563.5 L 518 563.5  A 1.5 1.5 0 0 1 519.5 565 L 519.5 576  A 1.5 1.5 0 0 1 518 577.5 L 507 577.5  A 1.5 1.5 0 0 1 505.5 576 L 505.5 565  Z " fill-rule="nonzero" fill="#f0f0f0" stroke="none" />
  <path d="M 505.5 565  A 1.5 1.5 0 0 1 507 563.5 L 518 563.5  A 1.5 1.5 0 0 1 519.5 565 L 519.5 576  A 1.5 1.5 0 0 1 518 577.5 L 507 577.5  A 1.5 1.5 0 0 1 505.5 576 L 505.5 565  Z " stroke-width="1" stroke="#d7d7d7" fill="none" />
</svg>