<?xml version="1.0" encoding="utf-8"?>
<svg version="1.1" xmlns:xlink="http://www.w3.org/1999/xlink" width="15px" height="15px" viewBox="504 615  15 15" xmlns="http://www.w3.org/2000/svg">
  <path d="M 504.5 617  A 1.5 1.5 0 0 1 506 615.5 L 517 615.5  A 1.5 1.5 0 0 1 518.5 617 L 518.5 628  A 1.5 1.5 0 0 1 517 629.5 L 506 629.5  A 1.5 1.5 0 0 1 504.5 628 L 504.5 617  Z " fill-rule="nonzero" fill="#ffffff" stroke="none" />
  <path d="M 504.5 617  A 1.5 1.5 0 0 1 506 615.5 L 517 615.5  A 1.5 1.5 0 0 1 518.5 617 L 518.5 628  A 1.5 1.5 0 0 1 517 629.5 L 506 629.5  A 1.5 1.5 0 0 1 504.5 628 L 504.5 617  Z " stroke-width="1" stroke="#d7d7d7" fill="none" />
</svg>