<?xml version="1.0" encoding="utf-8"?>
<svg version="1.1" xmlns:xlink="http://www.w3.org/1999/xlink" width="15px" height="15px" viewBox="504 668  15 15" xmlns="http://www.w3.org/2000/svg">
  <path d="M 504.5 670  A 1.5 1.5 0 0 1 506 668.5 L 517 668.5  A 1.5 1.5 0 0 1 518.5 670 L 518.5 681  A 1.5 1.5 0 0 1 517 682.5 L 506 682.5  A 1.5 1.5 0 0 1 504.5 681 L 504.5 670  Z " fill-rule="nonzero" fill="#ffffff" stroke="none" />
  <path d="M 504.5 670  A 1.5 1.5 0 0 1 506 668.5 L 517 668.5  A 1.5 1.5 0 0 1 518.5 670 L 518.5 681  A 1.5 1.5 0 0 1 517 682.5 L 506 682.5  A 1.5 1.5 0 0 1 504.5 681 L 504.5 670  Z " stroke-width="1" stroke="#d7d7d7" fill="none" />
</svg>