<?xml version="1.0" encoding="utf-8"?>
<svg version="1.1" xmlns:xlink="http://www.w3.org/1999/xlink" width="15px" height="15px" viewBox="569 946  15 15" xmlns="http://www.w3.org/2000/svg">
  <path d="M 569.5 948  A 1.5 1.5 0 0 1 571 946.5 L 582 946.5  A 1.5 1.5 0 0 1 583.5 948 L 583.5 959  A 1.5 1.5 0 0 1 582 960.5 L 571 960.5  A 1.5 1.5 0 0 1 569.5 959 L 569.5 948  Z " fill-rule="nonzero" fill="#1890ff" stroke="none" />
  <path d="M 569.5 948  A 1.5 1.5 0 0 1 571 946.5 L 582 946.5  A 1.5 1.5 0 0 1 583.5 948 L 583.5 959  A 1.5 1.5 0 0 1 582 960.5 L 571 960.5  A 1.5 1.5 0 0 1 569.5 959 L 569.5 948  Z " stroke-width="1" stroke="#ffffff" fill="none" />
  <path d="M 572.214285714286 953.5  L 575.428571428571 956.714285714286  " stroke-width="3.21428571428571" stroke="#ffffff" fill="none" />
  <path d="M 575.428571428571 956.714285714286  L 580.785714285714 949.214285714286  " stroke-width="3.21428571428571" stroke="#ffffff" fill="none" />
</svg>