<?xml version="1.0" encoding="utf-8"?>
<svg version="1.1" xmlns:xlink="http://www.w3.org/1999/xlink" width="15px" height="15px" viewBox="570 841  15 15" xmlns="http://www.w3.org/2000/svg">
  <path d="M 570.5 843  A 1.5 1.5 0 0 1 572 841.5 L 583 841.5  A 1.5 1.5 0 0 1 584.5 843 L 584.5 854  A 1.5 1.5 0 0 1 583 855.5 L 572 855.5  A 1.5 1.5 0 0 1 570.5 854 L 570.5 843  Z " fill-rule="nonzero" fill="#f0f0f0" stroke="none" />
  <path d="M 570.5 843  A 1.5 1.5 0 0 1 572 841.5 L 583 841.5  A 1.5 1.5 0 0 1 584.5 843 L 584.5 854  A 1.5 1.5 0 0 1 583 855.5 L 572 855.5  A 1.5 1.5 0 0 1 570.5 854 L 570.5 843  Z " stroke-width="1" stroke="#d7d7d7" fill="none" />
  <path d="M 573.214285714286 848.5  L 576.428571428571 851.714285714286  " stroke-width="3.21428571428571" stroke="#d7d7d7" fill="none" />
  <path d="M 576.428571428571 851.714285714286  L 581.785714285714 844.214285714286  " stroke-width="3.21428571428571" stroke="#d7d7d7" fill="none" />
</svg>