<?xml version="1.0" encoding="utf-8"?>
<svg version="1.1" xmlns:xlink="http://www.w3.org/1999/xlink" width="15px" height="15px" viewBox="570 841  15 15" xmlns="http://www.w3.org/2000/svg">
  <path d="M 570.5 843  A 1.5 1.5 0 0 1 572 841.5 L 583 841.5  A 1.5 1.5 0 0 1 584.5 843 L 584.5 854  A 1.5 1.5 0 0 1 583 855.5 L 572 855.5  A 1.5 1.5 0 0 1 570.5 854 L 570.5 843  Z " fill-rule="nonzero" fill="#ffffff" stroke="none" />
  <path d="M 570.5 843  A 1.5 1.5 0 0 1 572 841.5 L 583 841.5  A 1.5 1.5 0 0 1 584.5 843 L 584.5 854  A 1.5 1.5 0 0 1 583 855.5 L 572 855.5  A 1.5 1.5 0 0 1 570.5 854 L 570.5 843  Z " stroke-width="1" stroke="#d7d7d7" fill="none" />
</svg>