<?xml version="1.0" encoding="utf-8"?>
<svg version="1.1" xmlns:xlink="http://www.w3.org/1999/xlink" width="15px" height="15px" viewBox="538 660  15 15" xmlns="http://www.w3.org/2000/svg">
  <path d="M 538.5 662  A 1.5 1.5 0 0 1 540 660.5 L 551 660.5  A 1.5 1.5 0 0 1 552.5 662 L 552.5 673  A 1.5 1.5 0 0 1 551 674.5 L 540 674.5  A 1.5 1.5 0 0 1 538.5 673 L 538.5 662  Z " fill-rule="nonzero" fill="#f0f0f0" stroke="none" />
  <path d="M 538.5 662  A 1.5 1.5 0 0 1 540 660.5 L 551 660.5  A 1.5 1.5 0 0 1 552.5 662 L 552.5 673  A 1.5 1.5 0 0 1 551 674.5 L 540 674.5  A 1.5 1.5 0 0 1 538.5 673 L 538.5 662  Z " stroke-width="1" stroke="#d7d7d7" fill="none" />
</svg>