<?xml version="1.0" encoding="utf-8"?>
<svg version="1.1" xmlns:xlink="http://www.w3.org/1999/xlink" width="15px" height="15px" viewBox="538 819  15 15" xmlns="http://www.w3.org/2000/svg">
  <path d="M 538.5 821  A 1.5 1.5 0 0 1 540 819.5 L 551 819.5  A 1.5 1.5 0 0 1 552.5 821 L 552.5 832  A 1.5 1.5 0 0 1 551 833.5 L 540 833.5  A 1.5 1.5 0 0 1 538.5 832 L 538.5 821  Z " fill-rule="nonzero" fill="#1890ff" stroke="none" />
  <path d="M 538.5 821  A 1.5 1.5 0 0 1 540 819.5 L 551 819.5  A 1.5 1.5 0 0 1 552.5 821 L 552.5 832  A 1.5 1.5 0 0 1 551 833.5 L 540 833.5  A 1.5 1.5 0 0 1 538.5 832 L 538.5 821  Z " stroke-width="1" stroke="#ffffff" fill="none" />
  <path d="M 541.214285714286 826.5  L 544.428571428571 829.714285714286  " stroke-width="3.21428571428571" stroke="#ffffff" fill="none" />
  <path d="M 544.428571428571 829.714285714286  L 549.785714285714 822.214285714286  " stroke-width="3.21428571428571" stroke="#ffffff" fill="none" />
</svg>