<?xml version="1.0" encoding="utf-8"?>
<svg version="1.1" xmlns:xlink="http://www.w3.org/1999/xlink" width="15px" height="15px" viewBox="538 715  15 15" xmlns="http://www.w3.org/2000/svg">
  <path d="M 538.5 717  A 1.5 1.5 0 0 1 540 715.5 L 551 715.5  A 1.5 1.5 0 0 1 552.5 717 L 552.5 728  A 1.5 1.5 0 0 1 551 729.5 L 540 729.5  A 1.5 1.5 0 0 1 538.5 728 L 538.5 717  Z " fill-rule="nonzero" fill="#ffffff" stroke="none" />
  <path d="M 538.5 717  A 1.5 1.5 0 0 1 540 715.5 L 551 715.5  A 1.5 1.5 0 0 1 552.5 717 L 552.5 728  A 1.5 1.5 0 0 1 551 729.5 L 540 729.5  A 1.5 1.5 0 0 1 538.5 728 L 538.5 717  Z " stroke-width="1" stroke="#d7d7d7" fill="none" />
</svg>